{"title":"Harry Potter And The Order Of The Phoenix 2007 BRRip 1080p 6Ch E","uid":6765905,"size":3766494800,"categoryP":"video","categoryS":"hd___movies","magnet":"?xt=urn:btih:601f168620b72bd78daef4858b3568ad1b50c41d&amp;dn=Harry+Potter+And+The+Order+Of+The+Phoenix+2007+BRRip+1080p+6Ch+E&amp;tr=udp%3A%2F%2Ftracker.openbittorrent.com%3A80&amp;tr=udp%3A%2F%2Fopen.demonii.com%3A1337&amp;tr=udp%3A%2F%2Ftracker.coppersurfer.tk%3A6969&amp;tr=udp%3A%2F%2Fexodus.desync.com%3A6969","seeders":0,"leechers":1,"uploader":"meguil","files":7,"time":1319386981,"description":"Cover &lt;a href=&quot;\nhttp://img829.imageshack.us/img829/9757/coverpy.png&quot; rel=&quot;nofollow&quot; target=&quot;_NEW&quot;&gt;\nhttp://img829.imageshack.us/img829/9757/coverpy.png&lt;/a&gt;\n\nRelease Title Harry Potter And The Order Of The Phoenix 2007 BRRip 1080p 6Ch Dual Audio Eng-Hindi[MEGUIL &amp; HD-KING]\n\nStoryline:\nWith their warning about Lord Voldemort's return scoffed at, Harry and Dumbledore are targeted by the Wizard authorities as an authoritarian bureaucrat slowly seizes power at Hogwarts. \n\nCast\nDaniel Radcliffe\t... Harry Potter\nHarry Melling\t... Dudley Dursley\nJason Boyd\t... Piers\nRichard Macklin\t... Malcolm\nKathryn Hunter\t... Mrs. Arabella Figg\nMiles Jupp\t... TV Weatherman\nFiona Shaw\t... Aunt Petunia Dursley\nRichard Griffiths\t... Uncle Vernon Dursley\nJessica Hynes\t... Mafalda Hopkirk (voice) (as Jessica Stevenson)\nAdrian Rawlins\t... James Potter\nGeraldine Somerville\t... Lily Potter\nRobert Pattinson\t... Cedric Diggory\n\nPlot:\nGenre: Adventure | Family | Fantasy | Mystery\nLanguage: English\nRuntime: 2h 12min\nTotal Size: 3.47 GB\nSource: Harry Potter Bluray Disk ;)\nEncoder: MEGUIL &amp; HD-KING\n\nVideo Specs\nContainer: mkv\nFormat Profile: &lt;a class=&quot;__cf_email__&quot; href=&quot;/cdn-cgi/l/email-protection&quot; data-cfemail=&quot;bbf3d2dcd3fbf78f958b&quot;&gt;[email&amp;#160;protected]&lt;/a&gt;&lt;script cf-hash='f9e31' type=&quot;text/javascript&quot;&gt;\n/* &lt;![CDATA[ */!function(){try{var t=&quot;currentScript&quot;in document?document.currentScript:function(){for(var t=document.getElementsByTagName(&quot;script&quot;),e=t.length;e--;)if(t[e].getAttribute(&quot;cf-hash&quot;))return t[e]}();if(t&amp;&amp;t.previousSibling){var e,r,n,i,c=t.previousSibling,a=c.getAttribute(&quot;data-cfemail&quot;);if(a){for(e=&quot;&quot;,r=parseInt(a.substr(0,2),16),n=2;a.length-n;n+=2)i=parseInt(a.substr(n,2),16)^r,e+=String.fromCharCode(i);e=document.createTextNode(e),c.parentNode.replaceChild(e,c)}}}catch(u){}}();/* ]]&gt; */&lt;/script&gt;\nMin Bitrate: 3000 Kbps\nMax Bitrate: 25 Mbps\nEncoding: 2 Pass\nResolution: 1920 x 800 \nDisplay Aspect Ratio: 2.40:1\nQuality Factor (QF): 0.081\nFrame Rate: 23.976 Fps\nStream size: 2.89 GiB (80%)\n\nAudio Specs English\nSubtitles: None\nAudio Codec: AC3/CM\nBitrate: 320 Kbps\nSample Rate: 48.0 KHz\nChannel Count: 6\nChannel Positions: Front: L C R, Side: L R, LFE\nStream size: 281 MiB (10%)\n\nAudio Specs Hindi\nSubtitles: None\nAudio Codec: AC3/CM\nBitrate: 320 Kbps\nSample Rate: 48.0 KHz\nChannel Count: 6\nChannel Positions: Front: L C R, Side: L R, LFE\nStream size: 281 MiB (10%)\n\nIMDB &lt;a href=&quot;\nhttp://www.imdb.com/title/tt0373889/&quot; rel=&quot;nofollow&quot; target=&quot;_NEW&quot;&gt;\nhttp://www.imdb.com/title/tt0373889/&lt;/a&gt;\n\nScreens \n &lt;a href=&quot;\nhttp://img337.imageshack.us/img337/4737/screen1lh.jpg&quot; rel=&quot;nofollow&quot; target=&quot;_NEW&quot;&gt;\nhttp://img337.imageshack.us/img337/4737/screen1lh.jpg&lt;/a&gt;\n &lt;a href=&quot;\nhttp://img97.imageshack.us/img97/6498/screen2if.jpg&quot; rel=&quot;nofollow&quot; target=&quot;_NEW&quot;&gt;\nhttp://img97.imageshack.us/img97/6498/screen2if.jpg&lt;/a&gt;\n &lt;a href=&quot;\nhttp://img152.imageshack.us/img152/1747/screen3md.jpg&quot; rel=&quot;nofollow&quot; target=&quot;_NEW&quot;&gt;\nhttp://img152.imageshack.us/img152/1747/screen3md.jpg&lt;/a&gt;\n","torrent":{"xt":"urn:btih:601f168620b72bd78daef4858b3568ad1b50c41d","amp;dn":"Harry+Potter+And+The+Order+Of+The+Phoenix+2007+BRRip+1080p+6Ch+E","amp;tr":["udp%3A%2F%2Ftracker.openbittorrent.com%3A80","udp%3A%2F%2Fopen.demonii.com%3A1337","udp%3A%2F%2Ftracker.coppersurfer.tk%3A6969","udp%3A%2F%2Fexodus.desync.com%3A6969"],"infoHash":"601f168620b72bd78daef4858b3568ad1b50c41d","infoHashBuffer":{"type":"Buffer","data":[96,31,22,134,32,183,43,215,141,174,244,133,139,53,104,173,27,80,196,29]},"announce":[],"urlList":[]}}